<svg xmlns="http://www.w3.org/2000/svg" width="1282.789" height="263.76" viewBox="2 0 1282.789 263.76"><path d="M1.28 128.88V-6h1284.48l-.031 118.8c-.024 94.26-.282 119.13-1.245 120.396-4.124 5.423-32.94 7.19-46.725 2.865-18.124-5.685-31.999-15.479-43.431-30.655-11.83-15.704-17.956-27.608-20.047-38.955l8.075-2.481-14.037-4.84c-9.625-2.466-16.198-12.098-20.315-29.77-4.777-20.503-11.28-34.106-25.47-53.28-23.723-32.053-49.917-47.1-75.815-43.55-3.96.543-11.088 2.51-15.84 4.372-19.134 7.498-20.722 7.928-29.28 7.932-9.025.004-14.156-1.696-19.633-6.504-2.7-2.371-4.3-7.626-13.315-8.61-26.87-2.935-45.071-18.265-68.709-20.648l-10.45-1.054-9.946 1.6c-19.19 3.085-32.757.937-64.906.55-34.81-.42-28.76.5-47.383-6.695-6.39-2.469-13.773-1.15-21.708-1.56-22.11-1.14-42.244 5.65-69.087 23.302-16.113 10.595-20.622 12.557-36.302 15.79-21.684 4.471-60.971 4.909-135.84 1.512-56.156-2.548-75.238-4.307-98.56-9.087l-13.124-2.69-4.295 3.95c-2.362 2.172-17.257 6.777-24.305 16.096-7.048 9.318-15.814 16.923-18.504 19.341-13.639 12.262-26.93 11.415-54.65 14.585-31.375 3.586-57.266 7.81-77.84 18.1-4.225 2.112-14.344 19-22 23.845-19.181 12.142-18.75 17.266-29.982 21.907-19.606 8.102-32.896 23.416-54.135 55.01-14.875 22.127-26.332 31.965-48.783 41.89-16.61 7.342-49.446 18.296-54.846 18.296H1.28z" fill="#fbf3df"/><path d="M1240.562 215.475c-26.775-5.168-28.67-6.284-42.744-35.945-5.226-11.013-8.2-17.294-7.817-32.247.779-30.485-5.987-34.473-9.562-41.732-2.534-5.146-3.325-5.559-13.768-16.36-14.447-14.942-24.856-20.667-27.316-29.098-2.117-7.254-7.331-13.166-6.584-20.501.34-3.34-4.153-8.413-4.61-9.319-1.226-2.423-13.96-12.918-19.601-16.152-7.07-4.055-15.81-6.072-22.855-5.275-7.535.853-14.508 3.76-25.04 10.442-10.343 6.563-19.849 10.357-33.22 13.261-8.665 1.882-12.835 2.176-31.125 2.198-31.654.039-53.55-3.745-78.24-13.52-17.875-7.077-38.23-19.608-41.364-25.464C875.802-5.945 882.163-6 1080.766-6h204.994v118.6c0 135.06-8.159 98.217-18.315 100.947-8.066 2.168-18.657 3.516-26.883 1.928zM8.066 159.139c-4.567-1.32-6.786 20.067-6.786-75.31V-6h305.6c282.469 0 305.6.12 305.6 1.573 0 1.878-17.065 7.013-25.646 9.237C567.188 9.9 555.2 7.73 525.44 9.13c-10.824.51-26.592-.817-35.04-.018-40.145 3.8-48.038 6.043-59.2 6.043-14.29.001-23.692 1.633-31.582 5.838-8.867 4.726-22.04 5.975-35.985 24.424-7.078 9.363-16.755 11.886-20.529 15.38-11.6 10.74-25.83 7.949-45.981 10.454-32.378 4.025-38.906.987-57.444 7.04-14.937 4.878-32.372 19.969-50.238 31.438-26.517 17.024-24.519 25.153-63.049 32.438-8.712 1.647-26.242 5.287-34.07 7.112-24.825 5.788-31.78 8.062-52.81 8.446-10.56.192-30.427 1.708-31.446 1.414zM790.4 12.626c-16.134-2.983-27.15-6.731-36.56-12.44C743.449-6.115 742.6-6 799.04-6c42.682 0 50.56.21 50.56 1.343 0 2.919-18.45 12.135-30.99 15.48-5.619 1.5-23.628 2.651-28.21 1.803z" fill="#fab28d"/><path d="M1246.59 240.202c-26.65-4.168-49.174-21.872-64.676-50.833-6.95-12.983-8.104-17.843-7.757-32.64.71-30.222.62-31.627-2.407-37.848-1.967-4.04-6.284-9.342-14.909-18.306-18.75-19.486-24.373-27.565-27.379-39.328-2.522-9.87-1.653-27.398 1.359-27.398.521 0 5.027 4.86 10.013 10.8 16.702 19.899 33.054 30.883 51.685 34.717 11.217 2.308 16.807 1.93 48.47-3.277 30.555-5.026 44.57-5.376 46.917-3.029 1.166 1.167 9.867 13.264 3.77 81.526l-3.998 79.755-5.569 1.88c-8.087 3.685-25.17 5.6-35.52 3.98zM-6.393 178.73c-4.711-.991-4-.967-4-19.787 0-13.503.304-18.416 1.282-19.394.922-.922 17.744-1.195 33.194-1.987 11.835-.606 26.485-1.742 32.557-2.524 25.904-3.336 63.93-15.8 88.32-28.95 16-8.627 21.221-12.71 38.4-30.027 19.253-19.408 27.85-26.944 39.095-34.274 22.193-14.466 34.676-16.753 90.985-16.668 34.108.052 48.94-.752 61.914-3.356 14.712-2.953 32.988-10.054 46.752-18.165 4.122-2.43 16.64-14.419 17.556-14.917 1.013-.55 31.463-13.275 85.204-4.874l92.73 4.428-8.238 11.52c-1.126 1.574-6.637 3.605-11.52 5.169-17.677 5.662-41.535 9.054-74.638 10.613-10.824.51-26.592 1.584-35.04 2.387-37.481 3.565-48.912 4.406-60.083 4.42-14.223.016-21.635 1.56-30.932 6.447-8.363 4.394-13.932 9.911-24.929 24.695-13.558 18.227-18.727 24.203-25.04 28.948-13.978 10.508-30.208 16.01-54.856 18.595-23.122 2.426-46.94 7.95-64.775 15.023-13.155 5.217-19 8.346-37.465 20.06-27.53 17.465-39.798 21.996-80.557 29.749-9.286 1.766-23.579 4.741-31.763 6.612-8.184 1.87-19.2 4.087-24.48 4.926-9.439 1.5-54.949 2.326-59.673 1.331zM788.4 14.626C774.653 12.745 753.042 4.507 748.402-.62l-9.015-12.405 57.174-.4 56.775 4.398-7.187 8.84c-3.625 4.459-19.288 10.82-27.269 12.814-8.827 2.206-22.444 3.1-30.48 2z" fill="#343f51"/></svg>