<?xml version="1.0" encoding="UTF-8"?>
<!-- Created with Inkscape (http://www.inkscape.org/) -->
<svg width="608.64" height="557.44" version="1.1" viewBox="0 0 608.64 557.44" xmlns="http://www.w3.org/2000/svg" xmlns:cc="http://creativecommons.org/ns#" xmlns:dc="http://purl.org/dc/elements/1.1/" xmlns:rdf="http://www.w3.org/1999/02/22-rdf-syntax-ns#">
 <metadata>
  <rdf:RDF>
   <cc:Work rdf:about="">
    <dc:format>image/svg+xml</dc:format>
    <dc:type rdf:resource="http://purl.org/dc/dcmitype/StillImage"/>
    <dc:title/>
   </cc:Work>
  </rdf:RDF>
 </metadata>
 <g transform="translate(-9345.5 -5936.4)" stroke-width=".32">
  <path d="m9351.8 6370.9c0.063-67.628 0.01-128.32-0.1174-134.88l-0.2323-11.92h-6.0053v-24h144v-239.68h-6.08v-24h470.72v24h-6.08v533.44h-596.32z" fill="#93fdfd"/>
  <path d="m9351.8 6370.9c0.063-67.628 0.01-128.32-0.1174-134.88l-0.2323-11.92h-6.0053v-24h144v-239.68h-6.08v-24h470.72v24h-6.08v533.44h-596.32zm83.565 86.719c0-0.044-9.432-9.5121-20.96-21.039l-20.96-20.958v42.078h20.96c11.528 0 20.96-0.036 20.96-0.081zm207.73-2.0791c-1.0628-1.188-10.438-10.656-20.833-21.039l-18.9-18.879v42.078h41.666zm130.02-7.84c-27.403-27.63-31.373-31.6-31.596-31.6-0.133 0-0.2418 9.36-0.2418 20.8v20.8h41.756zm99.202-5.76c-8.5974-8.668-17.983-18.136-20.856-21.039l-5.2244-5.2788v42.078h41.712zm-436.96-116.16c0-0.044-9.432-9.5121-20.96-21.039l-20.96-20.958v42.078h20.96c11.528 0 20.96-0.036 20.96-0.081zm104.96 0c0-0.044-9.432-9.5121-20.96-21.039l-20.96-20.958v42.078h20.96c11.528 0 20.96-0.036 20.96-0.081zm104.35-0.4791c-0.1714-0.308-9.5365-9.7756-20.811-21.039l-20.5-20.479v42.078h20.811c19.726 0 20.795-0.029 20.5-0.56zm120.35-17.6c-9.8647-9.988-19.242-19.453-20.839-21.033l-2.9034-2.8734v42.067h41.678zm102.13-2.8c-11.407-11.528-20.779-20.96-20.826-20.96-0.048 0-0.086 9.432-0.086 20.96v20.96h41.652zm-293.87-110.96c0-0.044-9.432-9.5121-20.96-21.039l-20.96-20.958v42.078h20.96c11.528 0 20.96-0.036 20.96-0.081zm104.96 0c0-0.044-9.432-9.5121-20.96-21.039l-20.96-20.958v42.078h20.96c11.528 0 20.96-0.036 20.96-0.081zm88.381-16.479c-8.9854-9.108-18.363-18.574-20.839-21.036l-4.5021-4.4757v42.071h41.678zm100.54-4.4c-11.402-11.528-20.774-20.96-20.828-20.96-0.053 0-0.097 9.432-0.097 20.96v20.96h41.655zm-293.88-110.96c0-0.044-9.432-9.5121-20.96-21.039l-20.96-20.958v42.078h20.96c11.528 0 20.96-0.036 20.96-0.081zm104.96 0c0-0.044-9.432-9.5121-20.96-21.039l-20.96-20.958v42.078h20.96c11.528 0 20.96-0.036 20.96-0.081zm89.981-14.879c-8.1056-8.228-17.483-17.695-20.839-21.037l-6.1016-6.0769v42.074h41.678zm98.956-6c-11.398-11.528-20.772-20.96-20.83-20.96-0.059 0-0.1066 9.432-0.1066 20.96v20.96h41.66z" fill="#ddcec5"/>
  <path d="m9351.6 6478.8v-15.029h35.84v-72h48v-54.08h93.04l93.04-1e-4 -0.084 27.04-0.084 27.04h48.007v72h36.16v-227.84l-353.76-0.16-0.174-11.68h-6.0656v-24h144.32v-109.87c0-60.427-0.095-114.43-0.2117-120l-0.2117-10.132h-5.9766v-23.68h470.72v23.68h-6.08l-3e-4 244.56c-1e-4 134.51-0.096 254.6-0.2125 266.88l-0.2124 22.321-596.05-0.024v-15.029zm125.76-50.869v-35.84h-17.6v71.68h17.6zm119.68 0v-35.84h-17.6v71.68h17.6zm315.12-18c-0.047-9.9-0.085-1.8-0.085 18s0.038 27.9 0.085 18 0.047-26.1 0-36zm-476.72 47.679c0-0.044-9.432-9.5121-20.96-21.039l-20.96-20.958v42.078h20.96c11.528 0 20.96-0.036 20.96-0.081zm207.73-2.0791c-1.0628-1.188-10.438-10.656-20.833-21.039l-18.9-18.879v42.078h41.666zm130.02-7.84c-27.403-27.63-31.373-31.6-31.596-31.6-0.133 0-0.2418 9.36-0.2418 20.8v20.8h41.756zm99.202-5.76c-8.5974-8.668-17.983-18.136-20.856-21.039l-5.2244-5.2788v42.078h41.712zm-107.3-134.24c-9.8647-9.988-19.242-19.453-20.839-21.033l-2.9034-2.8734v42.067h41.678zm102.13-2.8c-11.407-11.528-20.779-20.96-20.826-20.96-0.048 0-0.086 9.432-0.086 20.96v20.96h41.652zm-293.87-110.96c0-0.044-9.432-9.5121-20.96-21.039l-20.96-20.958v42.078h20.96c11.528 0 20.96-0.036 20.96-0.081zm104.96 0c0-0.044-9.432-9.5121-20.96-21.039l-20.96-20.958v42.078h20.96c11.528 0 20.96-0.036 20.96-0.081zm88.381-16.479c-8.9854-9.108-18.363-18.574-20.839-21.036l-4.5021-4.4757v42.071h41.678zm100.54-4.4c-11.402-11.528-20.774-20.96-20.828-20.96-0.053 0-0.097 9.432-0.097 20.96v20.96h41.655zm-293.88-110.96c0-0.044-9.432-9.5121-20.96-21.039l-20.96-20.958v42.078h20.96c11.528 0 20.96-0.036 20.96-0.081zm104.96 0c0-0.044-9.432-9.5121-20.96-21.039l-20.96-20.958v42.078h20.96c11.528 0 20.96-0.036 20.96-0.081zm89.981-14.879c-8.1056-8.228-17.483-17.695-20.839-21.037l-6.1016-6.0769v42.074h41.678zm98.956-6c-11.398-11.528-20.772-20.96-20.83-20.96-0.059 0-0.1066 9.432-0.1066 20.96v20.96h41.66zm-479.82 254.88v-36.161h72.323l-0.162 72.16-72.16 0.162zm48 29.678c0-0.044-9.432-9.5121-20.96-21.039l-20.96-20.958v42.078h20.96c11.528 0 20.96-0.036 20.96-0.081zm56.853 6.2676c-0.1173-0.1174-0.2133-16.389-0.2133-36.16v-35.947h72.32v72.32h-35.947c-19.771 0-36.043-0.096-36.16-0.2133zm48.107-6.2676c0-0.044-9.432-9.5121-20.96-21.039l-20.96-20.958v42.078h20.96c11.528 0 20.96-0.036 20.96-0.081zm56.853 6.2676c-0.1173-0.1174-0.2133-16.389-0.2133-36.16v-35.947h72.32v72.32h-35.947c-19.771 0-36.043-0.096-36.16-0.2133zm47.498-6.7467c-0.1714-0.308-9.5365-9.7756-20.811-21.039l-20.5-20.479v42.078h20.811c19.726 0 20.795-0.029 20.5-0.56z" fill="#79c9ea"/>
  <path d="m9351.6 6478.8v-15.029h35.84v-72h48v-54.08h93.04l93.04-1e-4 -0.084 27.04-0.084 27.04h48.007v72h36.16v-227.84l-353.76-0.16-0.174-11.68h-6.0656v-24h144.32v-109.87c0-60.427-0.095-114.43-0.2117-120l-0.2117-10.132h-5.9766v-23.68h470.72v23.68h-6.08l-3e-4 244.56c-1e-4 134.51-0.096 254.6-0.2125 266.88l-0.2124 22.321-596.05-0.024v-15.029zm125.76-50.869v-35.84h-17.6v71.68h17.6zm119.68 0v-35.84h-17.6v71.68h17.6zm315.12-18c-0.047-9.9-0.085-1.8-0.085 18s0.038 27.9 0.085 18 0.047-26.1 0-36zm-472.29 47.868 13.492-0.2121v-41.816h-59.84v42.24h16.428c9.0352 0 22.499-0.095 29.92-0.2121zm209.92 0 13.492-0.2121v-41.816h-59.84v42.24h16.428c9.0352 0 22.499-0.095 29.92-0.2121zm242.88 0 13.492-0.2121v-41.816h-60.16v20.907c0 11.499 0.096 21.003 0.2133 21.12 0.2748 0.2747 29.005 0.2755 46.454 0zm-91.468-21.068v-20.96h-59.84v41.92h59.84zm-347.59-32.72-0.087-6-60-0.164v12.163h60.174zm209.67-0.08v-6.08h-59.84v12.16h59.84zm137.92 0.16v-5.92h-59.84v11.84h59.84zm104.96-0.16v-6.08h-59.84v12.16h59.84zm-118.45-77.972 13.492-0.2121v-41.816h-59.84v42.24h16.428c9.0352 0 22.499-0.095 29.92-0.2121zm104.96 0 13.492-0.2121v-41.816h-60.16v20.907c0 11.499 0.096 21.003 0.2133 21.12 0.2748 0.2747 29.005 0.2755 46.454 0zm-91.468-54.028v-5.92h-59.84v11.84h59.84zm104.96 0v-5.92h-59.84v11.84h59.84zm-328.37-77.812 13.492-0.2121v-41.816h-59.84v42.24h16.428c9.0352 0 22.499-0.095 29.92-0.2121zm104.96 0 13.492-0.2121v-41.816h-59.84v42.24h16.428c9.0352 0 22.499-0.095 29.92-0.2121zm104.96 0 13.492-0.2121v-41.816h-59.84v42.24h16.428c9.0352 0 22.499-0.095 29.92-0.2121zm104.96 0 13.492-0.2121v-41.816h-60.16v20.907c0 11.499 0.096 21.003 0.2133 21.12 0.2748 0.2747 29.005 0.2755 46.454 0zm-301.39-54.028v-5.92h-59.84v11.84h59.84zm104.96 0v-5.92h-59.84v11.84h59.84zm104.96 0v-5.92h-59.84v11.84h59.84zm104.96 0v-5.92h-59.84v11.84h59.84zm-328.37-77.812 13.492-0.2121v-41.816h-59.84v42.24h16.428c9.0352 0 22.499-0.095 29.92-0.2121zm104.96 0 13.492-0.2121v-41.816h-59.84v42.24h16.428c9.0352 0 22.499-0.095 29.92-0.2121zm104.96 0 13.492-0.2121v-41.816h-59.84v42.24h16.428c9.0352 0 22.499-0.095 29.92-0.2121zm104.96 0 13.492-0.2121v-41.816h-60.16v20.907c0 11.499 0.096 21.003 0.2133 21.12 0.2748 0.2747 29.005 0.2755 46.454 0zm-301.39-54.028v-5.92h-59.84v11.84h59.84zm104.96 0v-5.92h-59.84v11.84h59.84zm104.96 0v-5.92h-59.84v11.84h59.84zm104.96 0v-5.92h-59.84v11.84h59.84zm-518.72 287.84v-36.161h72.323l-0.162 72.16-72.16 0.162zm52.428 29.866 13.492-0.2121v-41.816h-59.84v42.24h16.428c9.0352 0 22.499-0.095 29.92-0.2121zm13.812-54.028v-5.92h-60.16v11.84h60.16zm38.613 60.107c-0.1173-0.1174-0.2133-16.389-0.2133-36.16v-35.947h72.32v72.32h-35.947c-19.771 0-36.043-0.096-36.16-0.2133zm52.534-6.0788 13.492-0.2121v-41.816h-59.84v42.24h16.428c9.0352 0 22.499-0.095 29.92-0.2121zm13.812-54.028v-5.92h-60.16v11.84h60.16zm38.613 60.107c-0.1173-0.1174-0.2133-16.389-0.2133-36.16v-35.947h72.32v72.32h-35.947c-19.771 0-36.043-0.096-36.16-0.2133zm52.534-6.0788 13.492-0.2121v-41.816h-59.84v42.24h16.428c9.0352 0 22.499-0.095 29.92-0.2121zm13.492-54.028v-5.92h-59.84v11.84h59.84z" fill="#c7b0a6"/>
  <path d="m9483.4 6445.7v-48.16h20.941c13.051 0 21.013 0.1159 21.131 0.3076 0.1046 0.1691 0.09 21.841-0.033 48.16l-0.2234 47.852h-41.816zm48 27.227c0-16.447 0.086-20.968 0.4-21.095 0.32-0.1291 0.32-0.1664 0-0.1867-0.3166-0.02-0.4-5.628-0.4-26.905v-26.88h20.941c14.144 0 21.008 0.1079 21.147 0.3326 0.113 0.1829 0.1 21.783-0.029 48l-0.2349 47.667h-41.824v-20.933zm110.96 20.693-62.96-0.082v-29.758h17.92v-71.68h-137.92v71.68h17.92v29.76h-125.77l0.166-29.6 35.68-0.166v-71.675h48v-54.08h185.92v54.08h48v71.68h65.597l0.162-71.84 72.16-0.162v72.003h32.637l0.162-71.84 71.84-0.162v72.003h35.84v30.08l-121.2-0.079c-66.66-0.044-149.53-0.1159-184.16-0.1608zm-202.53-35.812 13.492-0.2121v-41.816h-59.84v42.24h16.428c9.0352 0 22.499-0.095 29.92-0.2121zm209.92 0 13.492-0.2121v-41.816h-59.84v42.24h16.428c9.0352 0 22.499-0.095 29.92-0.2121zm242.88 0 13.492-0.2121v-41.816h-60.16v20.907c0 11.499 0.096 21.003 0.2133 21.12 0.2748 0.2747 29.005 0.2755 46.454 0zm-91.468-21.07v-20.962l-60 0.164-0.164 41.76h60.165zm-347.59-32.718-0.087-6-60-0.164v12.163h60.174zm209.67-0.08v-6.08h-59.84v12.16h59.84zm137.92 0.16v-5.92h-59.84v11.84h59.84zm104.96-0.16v-6.08h-59.84v12.16h59.84zm-518.72-108v-36h72v72h-72zm52.428 30.028 13.492-0.2121v-41.816h-59.84v42.24h16.428c9.0352 0 22.499-0.095 29.92-0.2121zm13.812-54.028v-5.92h-60.16v11.84h60.16zm38.72 24v-36h72v72h-72zm52.428 30.028 13.492-0.2121v-41.816h-59.84v42.24h16.428c9.0352 0 22.499-0.095 29.92-0.2121zm13.812-54.028v-5.92h-60.16v11.84h60.16zm38.72 24v-36h72v72h-72zm52.428 30.028 13.492-0.2121v-41.816h-59.84v42.24h16.428c9.0352 0 22.499-0.095 29.92-0.2121zm13.492-54.028v-5.92h-59.84v11.84h59.84zm71.68 24v-36h72.32v72h-72.32zm52.748 30.028 13.492-0.2121v-41.816h-60.16v20.907c0 11.499 0.096 21.003 0.2133 21.12 0.2748 0.2747 29.005 0.2755 46.454 0zm13.492-54.028v-5.92h-59.84v11.84h59.84zm38.72 24v-36h72.32v72h-72.32zm52.748 30.028 13.492-0.2121v-41.816h-60.16v20.907c0 11.499 0.096 21.003 0.2133 21.12 0.2748 0.2747 29.005 0.2755 46.454 0zm13.492-54.028v-5.92h-59.84v11.84h59.84zm-560.32-59.68v-11.84l63.12-2e-4c34.716-1e-4 75.108-0.096 89.76-0.2127l26.64-0.2125v-71.895h72v72h32.64v-72h72.32v72h8.96v24h-365.44zm231.95-18.132 13.492-0.2121v-41.816h-59.84v42.24h16.428c9.0352 0 22.499-0.095 29.92-0.2121zm104.96 0 13.492-0.2121v-41.816h-60.16v20.907c0 11.499 0.096 21.003 0.2133 21.12 0.2748 0.2747 29.005 0.2755 46.454 0zm-91.468-54.028v-5.92h-59.84v11.84h59.84zm104.96 0v-5.92h-59.84v11.84h59.84zm38.72 24v-36h72.32v72h-72.32zm52.748 30.028 13.492-0.2121v-41.816h-60.16v20.907c0 11.499 0.096 21.003 0.2133 21.12 0.2748 0.2747 29.005 0.2755 46.454 0zm13.492-54.028v-5.92h-59.84v11.84h59.84zm38.72 24v-36h72.32v72h-72.32zm52.748 30.028 13.492-0.2121v-41.816h-60.16v20.907c0 11.499 0.096 21.003 0.2133 21.12 0.2748 0.2747 29.005 0.2755 46.454 0zm13.492-54.028v-5.92h-59.84v11.84h59.84zm-380.8-107.84v-36h72v72h-72zm52.428 30.028 13.492-0.2121v-41.816h-59.84v42.24h16.428c9.0352 0 22.499-0.095 29.92-0.2121zm13.492-54.028v-5.92h-59.84v11.84h59.84zm38.72 24v-36h72.32v72h-72.32zm52.748 30.028 13.492-0.2121v-41.816h-60.16v20.907c0 11.499 0.096 21.003 0.2133 21.12 0.2748 0.2747 29.005 0.2755 46.454 0zm13.492-54.028v-5.92h-59.84v11.84h59.84zm38.72 24v-36h72.32v72h-72.32zm52.748 30.028 13.492-0.2121v-41.816h-60.16v20.907c0 11.499 0.096 21.003 0.2133 21.12 0.2748 0.2747 29.005 0.2755 46.454 0zm13.492-54.028v-5.92h-59.84v11.84h59.84zm38.72 24v-36h72.32v72h-72.32zm52.748 30.028 13.492-0.2121v-41.816h-60.16v20.907c0 11.499 0.096 21.003 0.2133 21.12 0.2748 0.2747 29.005 0.2755 46.454 0zm13.492-54.028v-5.92h-59.84v11.84h59.84zm-416.43-34.613c-0.1173-0.1174-0.2133-3.2134-0.2133-6.88v-6.6667h-6.08v-23.36h470.4v23.36h-5.76v13.76h-229.07c-125.99 0-229.16-0.096-229.28-0.2133z" fill="#9e8a8b"/>
  <path d="m9483.4 6445.7v-47.84h41.92v35.769l-1.2 0.2225c-1.6777 0.311-3.1203 1.276-3.9839 2.6648-0.6682 1.0747-0.7451 1.6266-0.8339 5.9839-0.091 4.4872-0.05 4.8937 0.64 6.2374 0.8558 1.6673 2.3013 2.7391 4.1053 3.0438l1.2725 0.2151v41.544h-41.92zm48 27.04v-20.8h0.8103c1.8788 0 4.2076-1.7106 4.9293-3.6208 0.5144-1.3614 0.4381-9.9259-0.1-11.213-0.6298-1.5074-2.6033-3.0231-4.2597-3.2715l-1.38-0.207v-35.767h41.92v95.68h-41.92zm173.76 6.08v-14.72h30.08v-72h71.68v72h33.28v-72h71.68v71.68h35.84v29.76h-242.56zm96.242-42 0.082-21.04h-60.485v42.243l60.32-0.164zm104.72 0.08v-21.12h-60.16v42.24h60.16zm-104.64-32.96v-6.08h-60.16v12.16h60.16zm104.96 0v-6.08h-60.48v12.16h60.48zm-518.72 24v-35.84h71.68v71.68h-71.68zm65.92 8.96v-21.12h-60.16v42.24h60.16zm0-32.96v-6.08h-60.16v12.16h60.16zm143.68 24v-35.84h72v71.68h-72zm66.24 8.96v-21.12h-60.48v20.907c0 11.499 0.096 21.003 0.2133 21.12 0.1174 0.1173 13.725 0.2133 30.24 0.2133h30.027zm0-32.96v-6.08h-60.16v12.16h60.16zm-228.16-41.92v-24h185.92v48h-185.92zm-48-66.08v-36h72v72h-72zm66.24 9.12v-21.12h-60.16v42.24h60.16zm0-33.12v-6.24h-60.16v12.48h60.16zm38.72 24v-36h72v72h-72zm66.24 9.12v-21.12h-60.48v20.907c0 11.499 0.096 21.003 0.2133 21.12 0.1174 0.1173 13.725 0.2133 30.24 0.2133h30.027zm0-33.12v-6.24h-60.16v12.48h60.16zm38.72 24v-36h72v72h-72zm66.24 9.12v-21.12h-60.48v20.907c0 11.499 0.096 21.003 0.2133 21.12 0.1174 0.1173 13.725 0.2133 30.24 0.2133h30.027zm0-33.12v-6.24h-60.16v12.48h60.16zm71.68 24v-36h71.68v72h-71.68zm65.92 9.12v-21.12h-60.16v42.24h60.16zm0.32-33.122v-6.2417l-60.32 0.164-0.174 12.32h60.494zm38.72 24.002v-36h71.68v72h-71.68zm65.92 9.12v-21.12h-60.16v42.24h60.16zm0.2469-33.04-0.087-6.16-60.32-0.164v12.483h60.494zm-560.57-59.76v-11.84h62.987c34.643 0 75.107-0.096 89.92-0.2127l26.933-0.2127v-71.895h71.68v72h32.96v-72h71.68v72h9.28v24h-365.44zm245.76-39.04v-21.12h-60.16v42.24h60.16zm104.64 0v-21.12h-60.16v42.24h60.16zm-104.64-33.12v-6.24h-60.16v12.48h60.16zm104.96 0v-6.2416l-60.32 0.164-0.174 12.32h60.494zm38.72 24.002v-36h71.68v72h-71.68zm65.92 9.12v-21.12h-60.16v42.24h60.16zm0.32-33.122v-6.2416l-60.32 0.164-0.174 12.32h60.494zm38.72 24.002v-36h71.68v72h-71.68zm65.92 9.12v-21.12h-60.16v42.24h60.16zm0.2469-33.04-0.087-6.16-60.32-0.164v12.483h60.494zm-380.73-107.92v-36h71.68v72h-71.68zm65.92 9.12v-21.12h-60.16v42.24h60.16zm0-33.12v-6.24h-60.16v12.48h60.16zm38.72 24v-36h71.68v72h-71.68zm65.92 9.12v-21.12h-60.16v42.24h60.16zm0.32-33.122v-6.2417l-60.32 0.164-0.174 12.32h60.494zm38.72 24.002v-36h71.68v72h-71.68zm65.92 9.12v-21.12h-60.16v42.24h60.16zm0.32-33.122v-6.2417l-60.32 0.164-0.174 12.32h60.494zm38.72 24.002v-36h71.68v72h-71.68zm65.92 9.12v-21.12h-60.16v42.24h60.16zm0.2469-33.04-0.087-6.16-60.32-0.164v12.483h60.494zm-419.85-48.159-3.12-0.1046v-23.337h470.4v23.261l-4.3706 0.2096c-4.2799 0.2052-456.77 0.177-462.91-0.029z" fill="#e17277"/>
  <path d="m9483.4 6445.7v-47.84h41.92v35.84h-0.7372c-0.4054 0-1.4767 0.3685-2.3806 0.819-2.5769 1.2841-2.9639 2.374-2.9552 8.322 0.01 3.9895 0.1068 4.9986 0.6106 6.1083 0.7015 1.5449 2.8531 2.9907 4.4505 2.9907h1.0119v41.6h-41.92zm48 27.082v-20.758l1.4765-0.1664c1.5847-0.1786 2.7301-0.8688 3.7837-2.28 0.6103-0.8175 0.6598-1.3241 0.6598-6.7568s-0.05-5.9393-0.6598-6.7568c-1.0541-1.4118-2.1991-2.1014-3.7863-2.2803l-1.4792-0.1667 0.166-35.596 41.76-0.164v95.685h-41.92zm173.76 6.0384v-14.72h30.08v-72h71.68v72h33.28v-72h71.68v71.68h35.84v29.76h-242.56zm96.32-41.92v-21.12h-60.48v42.24h60.48zm104.64 0v-21.12h-60.16v42.24h60.16zm-104.64-32.96v-6.08h-60.16v12.16h60.16zm104.96 0v-6.08h-60.48v12.16h60.48zm-518.72 24v-35.84h71.68v71.68h-71.68zm65.92 8.96v-21.12h-60.16v42.24h60.16zm0-32.96v-6.08h-60.16v12.16h60.16zm143.68 24v-35.84h72v71.68h-72zm66.24 8.96v-21.12h-60.48v42.24h60.48zm0-32.96v-6.08h-60.16v12.16h60.16zm-276.16-108v-36h72v72h-72zm66.24 9.12v-21.12h-60.16v42.24h60.16zm0-33.12v-6.24h-60.16v12.48h60.16zm38.72 24v-36h72v72h-72zm66.24 9.12v-21.12h-60.48v42.24h60.48zm0-33.12v-6.24h-60.16v12.48h60.16zm38.72 24v-36h72v72h-72zm66.24 9.12v-21.12h-60.48v42.24h60.48zm0-33.12v-6.24h-60.16v12.48h60.16zm71.68 24v-36h71.68v72h-71.68zm65.92 9.12v-21.12h-60.16v42.24h60.16zm0.32-33.12v-6.24h-60.48v12.48h60.48zm38.72 24v-36h71.68v72h-71.68zm65.92 9.12v-21.12h-60.16v42.24h60.16zm0.32-33.12v-6.24h-60.48v12.48h60.48zm-380.8-107.84v-36h71.68v72h-71.68zm65.92 9.12v-21.12h-60.16v42.24h60.16zm0-33.12v-6.24h-60.16v12.48h60.16zm38.72 24v-36h71.68v72h-71.68zm65.92 9.12v-21.12h-60.16v42.24h60.16zm0.32-33.12v-6.24h-60.48v12.48h60.48zm38.72 24v-36h71.68v72h-71.68zm65.92 9.12v-21.12h-60.16v42.24h60.16zm0.32-33.12v-6.24h-60.48v12.48h60.48zm38.72 24v-36h71.68v72h-71.68zm65.92 9.12v-21.12h-60.16v42.24h60.16zm0.32-33.12v-6.24h-60.48v12.48h60.48zm-380.8-107.84v-36h71.68v72h-71.68zm65.92 9.12v-21.12h-60.16v42.24h60.16zm0-33.12v-6.24h-60.16v12.48h60.16zm38.72 24v-36h71.68v72h-71.68zm65.92 9.12v-21.12h-60.16v42.24h60.16zm0.32-33.12v-6.24h-60.48v12.48h60.48zm38.72 24v-36h71.68v72h-71.68zm65.92 9.12v-21.12h-60.16v42.24h60.16zm0.32-33.12v-6.24h-60.48v12.48h60.48zm38.72 24v-36h71.68v72h-71.68zm65.92 9.12v-21.12h-60.16v42.24h60.16zm0.32-33.12v-6.24h-60.48v12.48h60.48z" fill="#685968"/>
 </g>
</svg>
